<svg fill="currentColor" xmlns="http://www.w3.org/2000/svg" xmlns:xlink="http://www.w3.org/1999/xlink" version="1.1" x="0px" y="0px" viewBox="0 0 100 125" style="enable-background:new 0 0 100 100;" xml:space="preserve"><path d="M94.22,13.88c-3.89-0.42-7.89,0.35-11.76,0.77c-3.97,0.44-7.94,0.88-11.91,1.32c-1.31,0.14-2.82,3.76-1.07,3.78  c0.29,0,0.57,0,0.86,0.01c0.2,0,0.4-0.06,0.6-0.16c3.42-0.38,6.85-0.76,10.27-1.14c2.27-0.25,4.58-0.62,6.89-0.79  C61.15,27.09,34.4,40.29,16.81,63.57C12.02,69.9,8.06,76.81,5.17,84.21c-0.26,0.68-0.34,1.88,0.6,2.03  c0.93,0.15,1.76-1.07,2.04-1.78C18.14,57.97,42.36,40.42,67.49,29.2c6.59-2.94,13.34-5.51,20.16-7.89  c-1.72,1.81-3.43,3.62-5.15,5.42c-0.55,0.58-1.08,1.93-0.52,2.65c0.61,0.8,1.59,0,2.06-0.49c2.16-2.28,4.32-4.55,6.48-6.83  c1.87-1.97,3.96-3.87,4.45-6.67C95.07,14.82,94.96,13.96,94.22,13.88z"/></svg>