<svg xmlns="http://www.w3.org/2000/svg" xmlns:xlink="http://www.w3.org/1999/xlink" version="1.1" x="0px" y="0px" viewBox="0 0 100 125" style="enable-background:new 0 0 100 100;" xml:space="preserve"><path d="M12.42,10.67c21.19,15.85,40.97,33.52,59.15,52.75c3.96,4.19,7.84,8.46,11.64,12.79c-0.15-0.44-0.31-0.88-0.46-1.32  c-1.32-3.75-2.64-7.5-3.96-11.25c-0.33-0.92-0.48-2.53,0.82-2.74c1.24-0.2,2.41,1.44,2.75,2.41c1.57,4.45,3.14,8.9,4.7,13.35  c1.28,3.63,4,8.46,2.52,12.35c-0.26,0.69-0.73,0.99-1.48,0.85c-5.53-1.06-10.82-3.02-15.73-5.78c-1.13-0.64-2.06-2.12-1.99-3.44  c0.06-1.19,0.98-1.8,2.07-1.19c4.23,2.38,8.71,4.06,13.43,5.09c0-0.19-0.01-0.37-0.03-0.56c-0.54-0.2-1.06-0.65-1.38-1.01  c-16.93-19.73-35.52-38-55.56-54.56c-5.75-4.75-11.62-9.36-17.59-13.83C9.36,13.13,9.47,8.47,12.42,10.67z"/></svg>