<svg width="458" height="96" viewBox="0 0 458 96" fill="none" xmlns="http://www.w3.org/2000/svg">
<path d="M165.24 3V91.8H141.72C141.72 91.8 141.689 66.5153 141.72 49.3C141.751 32.0848 141.72 3 141.72 3H165.24Z" fill="white"/>
<path d="M247.514 24.48V91.8H223.874V82.2C221.874 85.24 219.114 87.72 215.594 89.64C212.074 91.48 208.034 92.4 203.474 92.4C195.634 92.4 189.434 89.84 184.874 84.72C180.394 79.52 178.154 72.48 178.154 63.6V24.48H201.554V60.6C201.554 64.44 202.554 67.48 204.554 69.72C206.634 71.88 209.354 72.96 212.714 72.96C216.154 72.96 218.874 71.88 220.874 69.72C222.874 67.48 223.874 64.44 223.874 60.6V24.48H247.514Z" fill="white"/>
<path d="M348.86 23.88C357.34 23.88 363.98 26.44 368.78 31.56C373.66 36.68 376.1 43.68 376.1 52.56V91.8H352.58V55.68C352.58 52.08 351.58 49.28 349.58 47.28C347.58 45.28 344.86 44.28 341.42 44.28C337.98 44.28 335.26 45.28 333.26 47.28C331.26 49.28 330.26 52.08 330.26 55.68V91.8H306.74V55.68C306.74 52.08 305.74 49.28 303.74 47.28C301.82 45.28 299.14 44.28 295.7 44.28C292.18 44.28 289.42 45.28 287.42 47.28C285.42 49.28 284.42 52.08 284.42 55.68V91.8H260.9V24.48H284.42V33.36C286.5 30.48 289.18 28.2 292.46 26.52C295.82 24.76 299.66 23.88 303.98 23.88C308.94 23.88 313.34 24.96 317.18 27.12C321.1 29.28 324.18 32.32 326.42 36.24C328.82 32.56 331.98 29.6 335.9 27.36C339.82 25.04 344.14 23.88 348.86 23.88Z" fill="white"/>
<path d="M385.146 58.08C385.146 51.12 386.386 45.04 388.866 39.84C391.426 34.64 394.866 30.64 399.186 27.84C403.586 25.04 408.466 23.64 413.826 23.64C418.466 23.64 422.466 24.56 425.826 26.4C429.186 28.24 431.786 30.72 433.626 33.84V24.48H457.146V91.8H433.626V82.44C431.786 85.56 429.146 88.04 425.706 89.88C422.346 91.72 418.386 92.64 413.826 92.64C408.466 92.64 403.586 91.24 399.186 88.44C394.866 85.64 391.426 81.64 388.866 76.44C386.386 71.16 385.146 65.04 385.146 58.08ZM433.626 58.08C433.626 53.76 432.426 50.36 430.026 47.88C427.706 45.4 424.826 44.16 421.386 44.16C417.866 44.16 414.946 45.4 412.626 47.88C410.306 50.28 409.146 53.68 409.146 58.08C409.146 62.4 410.306 65.84 412.626 68.4C414.946 70.88 417.866 72.12 421.386 72.12C424.826 72.12 427.706 70.88 430.026 68.4C432.426 65.92 433.626 62.48 433.626 58.08Z" fill="white"/>
<path d="M96 68.2666H68.2666V96H0V27.7334H27.7334V0H96V68.2666ZM27.7334 68.2666H68.2666V27.7334H27.7334V68.2666Z" fill="white"/>
</svg>
