<svg xmlns="http://www.w3.org/2000/svg" version="1.1" viewBox="-5.0 -10.0 110.0 135.0">
 <path d="m44 26h1v48h-1zm24 47h1v-48h-1zm-26-3h1v-40h-1zm-2-5h1v-30h-1zm-2 2h1v-34h-1zm-2-3h1v-28h-1zm10 6h1v-40h-1zm20 0h1v-40h-1zm-8-18h1v-4h-1zm-2 2h1v-8h-1zm-2 2h1v-12h-1zm-2 3h1v-18h-1zm8 1h1v-18h-1zm-10 2h1v-24h-1zm12 0h1v-24h-1zm-14 3h1v-30h-1zm16 0h1v-30h-1zm-38 3h1v-37h-1zm-2-3h1v-30h-1zm-2-6h1v-18h-1zm-2 3h1v-24h-1zm-4-4h1v-15h-1zm2 1h1v-18h-1zm10 6h1v-30h-1zm-14-6h1v-18h-1zm58-5h1v-8h-1zm14 16h1v-38h-1zm-2-4h1v-30h-1zm-2-6h1v-18h-1zm-2 2h1v-22h-1zm-2 2h1v-28h-1zm10 2h1v-30h-1zm-18-7h1v-18h-1zm-58 3h1v-24h-1zm-2-4h1v-18h-1zm20 1h1v-18h-1zm-22-3h1v-12h-1zm-2-2h1v-8h-1zm-2-2h1v-4h-1zm-2-1h1v-2h-1zm88 8h1v-18h-1zm2-3h1v-12h-1zm2-2h1v-8h-1zm2-2h1v-4h-1zm2-3v2h1v-2zm-64 3h1v-4h-1zm-2-1h1v-2h-1zm44 1h1v-4h-1zm-2-1h1v-2h-1z"/>
</svg>