<svg width="213" height="68" viewBox="0 0 213 68" fill="none" xmlns="http://www.w3.org/2000/svg">
<path d="M6.65625 46.4062V9.60938H0L0 0H18.7031V46.4062C18.7031 50.1562 19.2656 52.8125 20.3906 54.375C21.5469 55.9375 23.4688 56.7188 26.1562 56.7188H35.8125V66.3281H22.7812C17.0312 66.3281 12.9062 64.7969 10.4062 61.7344C7.90625 58.6719 6.65625 53.5625 6.65625 46.4062Z" fill="white"/>
<path d="M63.3206 18.6562V49.6875C63.3206 52.2812 63.805 54.25 64.7738 55.5938C65.7425 56.9062 67.2113 57.5625 69.18 57.5625C71.0863 57.5625 72.9144 56.7812 74.6644 55.2188C76.4456 53.625 78.3206 51.4844 80.2894 48.7969V18.6562H91.7269V66.2812H81.8363L81.555 59.25C80.555 60.4688 79.5394 61.5781 78.5081 62.5781C77.4769 63.5781 76.3519 64.4375 75.1331 65.1562C73.9456 65.8438 72.6331 66.375 71.1956 66.75C69.7894 67.1562 68.2269 67.3594 66.5081 67.3594C64.0706 67.3594 61.93 66.9688 60.0863 66.1875C58.2738 65.375 56.7581 64.2344 55.5394 62.7656C54.3206 61.2969 53.3988 59.5469 52.7738 57.5156C52.18 55.4531 51.8831 53.1562 51.8831 50.625V18.6562H63.3206Z" fill="white"/>
<path d="M146.048 66.2812V33.8438C146.048 32.6562 146.016 31.625 145.954 30.75C145.891 29.8438 145.766 29.0938 145.579 28.5C145.391 27.9062 145.11 27.4688 144.735 27.1875C144.391 26.875 143.907 26.7188 143.282 26.7188C142.313 26.7188 141.36 27.375 140.423 28.6875C139.485 30 138.423 32.2344 137.235 35.3906V66.2812H127.438V33.8438C127.438 32.6562 127.407 31.625 127.344 30.75C127.282 29.8438 127.157 29.0938 126.969 28.5C126.782 27.9062 126.501 27.4688 126.126 27.1875C125.751 26.875 125.251 26.7188 124.626 26.7188C123.813 26.7188 122.907 27.375 121.907 28.6875C120.907 30 119.798 32.2344 118.579 35.3906V66.2812H108.688V18.6562H117.173L117.36 25.5938C118.048 24.1875 118.735 22.9844 119.423 21.9844C120.11 20.9844 120.844 20.1719 121.626 19.5469C122.407 18.8906 123.235 18.4219 124.11 18.1406C125.016 17.8594 126.032 17.7188 127.157 17.7188C129.813 17.7188 131.829 18.4219 133.204 19.8281C134.61 21.2031 135.407 23.125 135.594 25.5938C136.344 24.1875 137.079 22.9844 137.798 21.9844C138.548 20.9844 139.313 20.1719 140.094 19.5469C140.907 18.8906 141.766 18.4219 142.673 18.1406C143.61 17.8594 144.641 17.7188 145.766 17.7188C149.235 17.7188 151.798 18.9375 153.454 21.375C155.11 23.7812 155.938 27.3594 155.938 32.1094V66.2812H146.048Z" fill="white"/>
<path d="M212.556 18.4688V65.2969C212.556 65.6094 212.243 65.9375 211.618 66.2812H203.649C203.337 66.2812 203.009 65.9531 202.665 65.2969V60.5625H202.337C197.306 65 192.634 67.2188 188.321 67.2188C181.415 67.2188 176.431 63.5 173.368 56.0625C172.524 53.75 171.993 50.6719 171.774 46.8281C171.774 32.2344 178.352 22.8906 191.509 18.7969C191.977 18.7969 193.993 18.5938 197.556 18.1875C199.368 18.375 200.759 18.4688 201.727 18.4688H212.556ZM181.337 47.4844C182.149 54.2656 184.806 57.6562 189.306 57.6562H190.243C193.368 57.6562 197.196 54.5781 201.727 48.4219V28.3594C201.509 27.7344 200.868 27.4219 199.806 27.4219H194.415C188.227 27.4219 183.977 32.4062 181.665 42.375L181.337 47.4844Z" fill="white"/>
</svg>
